<svg width="1920" height="1080" viewBox="0 0 1920 1080" xmlns="http://www.w3.org/2000/svg"><rect width="1920" height="1080" fill="#df6688"/><path d="M 0,1080 C 0,1080 0,180 0,180 C 111.49487179487181,165.97692307692307 222.98974358974363,151.95384615384614 334,133 C 445.0102564102564,114.04615384615384 555.5358974358974,90.16153846153844 656,117 C 756.4641025641026,143.83846153846156 846.8666666666668,221.40000000000003 950,245 C 1053.1333333333332,268.59999999999997 1168.9974358974362,238.23846153846154 1268,215 C 1367.0025641025638,191.76153846153846 1449.1435897435897,175.64615384615385 1555,171 C 1660.8564102564103,166.35384615384615 1790.4282051282053,173.17692307692306 1920,180 C 1920,180 1920,1080 1920,1080 Z" fill="#3d1053" opacity="0.09999999999999999"/><path d="M 0,1080 C 0,1080 0,360 0,360 C 124.9025641025641,331.0692307692308 249.8051282051282,302.1384615384615 348,315 C 446.1948717948718,327.8615384615385 517.6820512820512,382.5153846153847 613,387 C 708.3179487179488,391.4846153846153 827.4666666666667,345.8 959,333 C 1090.5333333333333,320.2 1234.4512820512819,340.28461538461545 1334,367 C 1433.5487179487181,393.71538461538455 1488.7282051282052,427.0615384615385 1579,427 C 1669.2717948717948,426.9384615384615 1794.6358974358973,393.46923076923076 1920,360 C 1920,360 1920,1080 1920,1080 Z" fill="#3d1053" opacity="0.19999999999999998"/><path d="M 0,1080 C 0,1080 0,540 0,540 C 85.43589743589746,530.3871794871795 170.87179487179492,520.774358974359 293,521 C 415.1282051282051,521.225641025641 573.9487179487179,531.2897435897436 680,513 C 786.0512820512821,494.7102564102564 839.3333333333333,448.06666666666666 920,475 C 1000.6666666666667,501.93333333333334 1108.7179487179487,602.4435897435898 1241,607 C 1373.2820512820513,611.5564102564102 1529.7948717948718,520.1589743589743 1647,493 C 1764.2051282051282,465.8410256410257 1842.102564102564,502.92051282051284 1920,540 C 1920,540 1920,1080 1920,1080 Z" fill="#3d1053" opacity="0.3"/><path d="M 0,1080 C 0,1080 0,720 0,720 C 81.46923076923076,676.4153846153846 162.93846153846152,632.8307692307692 265,654 C 367.0615384615385,675.1692307692308 489.71538461538455,761.0923076923076 618,782 C 746.2846153846154,802.9076923076924 880.2,758.8 988,755 C 1095.8,751.2 1177.4846153846154,787.7076923076924 1285,768 C 1392.5153846153846,748.2923076923076 1525.8615384615382,672.3692307692309 1636,655 C 1746.1384615384618,637.6307692307691 1833.069230769231,678.8153846153846 1920,720 C 1920,720 1920,1080 1920,1080 Z" fill="#3d1053" opacity="0.39999999999999997"/><path d="M 0,1080 C 0,1080 0,900 0,900 C 104.64358974358973,917.3666666666667 209.28717948717946,934.7333333333333 325,936 C 440.71282051282054,937.2666666666667 567.4948717948718,922.4333333333334 678,920 C 788.5051282051282,917.5666666666666 882.7333333333333,927.5333333333333 984,909 C 1085.2666666666667,890.4666666666667 1193.5717948717947,843.4333333333333 1292,854 C 1390.4282051282053,864.5666666666667 1478.9794871794873,932.7333333333332 1582,950 C 1685.0205128205127,967.2666666666668 1802.5102564102563,933.6333333333334 1920,900 C 1920,900 1920,1080 1920,1080 Z" fill="#3d1053" opacity="0.49999999999999994"/></svg>